Coordinates
version=1
nRows=65
nColumns=12
inDegrees=yes

Units are S.I. units (second, meters, Newtons, ...)
Angles are in degrees

endheader
time	SC_y	SC_z	SC_x	AC_y	AC_z	AC_x	GH_y	GH_z	GH_yy	EL_x	PS_y
       0.0               -55.0         -3.072          59.74          35.34         0.6606         -10.24         -102.9          40.77         -162.9          23.36          151.8
   0.04354               -55.0         -3.072          59.73          35.34         0.6596         -10.24         -102.9          40.78         -162.9          23.37          151.8
   0.08707               -55.0         -3.071          59.73          35.35         0.6585         -10.24         -102.9          40.79         -162.9          23.38          151.8
    0.1306               -55.0         -3.071          59.72          35.35         0.6573         -10.24         -102.9          40.79         -162.9          23.39          151.8
    0.1741              -55.01          -3.07          59.71          35.36         0.6561         -10.23         -102.9           40.8         -162.9          23.39          151.8
    0.2177              -55.01          -3.07          59.71          35.37         0.6548         -10.23         -102.9          40.81         -162.9           23.4          151.7
    0.2612              -55.01         -3.069           59.7          35.37         0.6535         -10.22         -102.9          40.82         -162.9          23.41          151.7
    0.3047              -55.01         -3.068           59.7          35.38          0.652         -10.22         -102.9          40.83         -162.9          23.42          151.7
    0.3483              -55.01         -3.067          59.69          35.39         0.6504         -10.22         -102.9          40.84         -162.9          23.43          151.7
    0.3918              -55.01         -3.067          59.68           35.4         0.6487         -10.21         -103.0          40.85         -162.9          23.45          151.7
    0.4354              -55.01         -3.066          59.67          35.41         0.6469         -10.21         -103.0          40.86         -162.9          23.46          151.6
    0.4789              -55.01         -3.065          59.66          35.42         0.6449          -10.2         -103.0          40.87         -162.8          23.47          151.6
    0.5224              -55.01         -3.064          59.65          35.43         0.6428         -10.19         -103.0          40.89         -162.8          23.49          151.6
     0.566              -55.01         -3.063          59.64          35.44         0.6405         -10.19         -103.0           40.9         -162.8           23.5          151.5
    0.6095              -55.01         -3.061          59.63          35.45          0.638         -10.18         -103.0          40.92         -162.8          23.52          151.5
     0.653              -55.01          -3.06          59.62          35.46         0.6354         -10.17         -103.0          40.94         -162.8          23.54          151.5
    0.6966              -55.02         -3.059          59.61          35.48         0.6325         -10.17         -103.0          40.95         -162.8          23.56          151.4
    0.7401              -55.02         -3.057          59.59          35.49         0.6293         -10.16         -103.0          40.97         -162.8          23.58          151.4
    0.7836              -55.02         -3.055          59.58          35.51         0.6258         -10.15         -103.0           41.0         -162.7           23.6          151.3
    0.8272              -55.02         -3.053          59.56          35.53          0.622         -10.14         -103.0          41.02         -162.7          23.63          151.3
    0.8707              -55.02         -3.051          59.54          35.55         0.6179         -10.13         -103.1          41.05         -162.7          23.66          151.2
    0.9142              -55.03         -3.049          59.52          35.57         0.6133         -10.11         -103.1          41.08         -162.7          23.69          151.2
    0.9578              -55.03         -3.046          59.49           35.6         0.6082          -10.1         -103.1          41.11         -162.6          23.72          151.1
     1.001              -55.03         -3.044          59.47          35.63         0.6026         -10.08         -103.1          41.15         -162.6          23.76          151.0
     1.045              -55.03         -3.041          59.44          35.66         0.5964         -10.07         -103.1          41.19         -162.6           23.8          150.9
     1.088              -55.04         -3.037          59.41          35.69         0.5894         -10.05         -103.2          41.23         -162.5          23.85          150.8
     1.132              -55.04         -3.033          59.37          35.73         0.5816         -10.03         -103.2          41.28         -162.5          23.91          150.7
     1.175              -55.04         -3.029          59.33          35.78         0.5728          -10.0         -103.2          41.34         -162.5          23.97          150.6
     1.219              -55.05         -3.024          59.29          35.83         0.5629         -9.974         -103.2          41.41         -162.4          24.03          150.5
     1.263              -55.05         -3.018          59.23          35.88         0.5517         -9.943         -103.3          41.48         -162.3          24.11          150.3
     1.306              -55.06         -3.012          59.18          35.95         0.5388         -9.907         -103.3          41.56         -162.3           24.2          150.1
      1.35              -55.07         -3.005          59.11          36.02         0.5241         -9.867         -103.4          41.66         -162.2           24.3          149.9
     1.393              -55.08         -2.996          59.03           36.1         0.5071          -9.82         -103.4          41.77         -162.1          24.42          149.7
     1.437              -55.09         -2.986          58.94           36.2         0.4873         -9.765         -103.5           41.9         -162.0          24.55          149.4
      1.48               -55.1         -2.975          58.83          36.32         0.4642         -9.701         -103.6          42.05         -161.9          24.71          149.1
     1.524              -55.11         -2.961          58.71          36.46         0.4369         -9.626         -103.7          42.23         -161.7           24.9          148.7
     1.567              -55.12         -2.945          58.56          36.62         0.4045         -9.536         -103.8          42.44         -161.6          25.12          148.2
     1.611              -55.14         -2.926          58.38          36.81         0.3657         -9.428         -103.9          42.69         -161.4          25.39          147.7
     1.654              -55.17         -2.902          58.16          37.05         0.3187         -9.298         -104.1          42.99         -161.1          25.71          147.0
     1.698              -55.19         -2.874           57.9          37.34         0.2613          -9.14         -104.3          43.37         -160.8           26.1          146.2
     1.741              -55.23         -2.838          57.57          37.69         0.1905         -8.944         -104.5          43.83         -160.4          26.59          145.2
     1.785              -55.27         -2.795          57.17          38.13         0.1021         -8.699         -104.8           44.4         -159.9           27.2          144.0
     1.828              -55.32         -2.739          56.66          38.69      -0.009187         -8.392         -105.2          45.12         -159.4          27.96          142.4
     1.872              -55.39         -2.669          56.01           39.4        -0.1507           -8.0         -105.7          46.04         -158.6          28.93          140.4
     1.916              -55.47         -2.579          55.17           40.3        -0.3317         -7.499         -106.3          47.22         -157.6          30.17          137.9
     1.959              -55.58         -2.463          54.11          41.47        -0.5641         -6.856         -107.1          48.73         -156.4          31.77          134.6
     2.003              -55.73         -2.315          52.74          42.95         -0.861         -6.035         -108.1          50.66         -154.8           33.8          130.4
     2.046               -55.9         -2.129          51.03          44.82         -1.234         -5.003         -109.4          53.09         -152.8          36.36          125.2
      2.09              -56.12         -1.903          48.94           47.1         -1.689         -3.745         -110.9          56.04         -150.4          39.49          118.8
     2.133              -56.37          -1.64          46.51          49.73         -2.216         -2.287         -112.7          59.47         -147.6           43.1          111.4
     2.177              -56.64         -1.356          43.89          52.59         -2.787        -0.7075         -114.7          63.18         -144.6          47.02          103.4
      2.22              -56.91         -1.072          41.26          55.45         -3.358         0.8716         -116.6          66.89         -141.5          50.94          95.32
     2.264              -57.16        -0.8097          38.84          58.09         -3.885           2.33         -118.4          70.31         -138.7          54.55          87.91
     2.307              -57.38        -0.5833          36.75          60.36          -4.34          3.588         -120.0          73.27         -136.3          57.68          81.52
     2.351              -57.56        -0.3975          35.03          62.23         -4.713           4.62         -121.2           75.7         -134.3          60.24          76.27
     2.394               -57.7        -0.2497          33.67          63.72          -5.01          5.442         -122.3          77.62         -132.7          62.27          72.09
     2.438              -57.81        -0.1341           32.6          64.88         -5.242          6.084         -123.1          79.13         -131.5          63.87          68.83
     2.482              -57.89       -0.04391          31.77          65.78         -5.424          6.585         -123.7          80.31         -130.5          65.11          66.28
     2.525              -57.96        0.02652          31.12          66.49         -5.565          6.977         -124.2          81.23         -129.7          66.08          64.29
     2.569              -58.01        0.08191          30.61          67.05         -5.676          7.284         -124.5          81.95         -129.2          66.84          62.73
     2.612              -58.06         0.1259           30.2          67.49         -5.765          7.529         -124.8          82.53         -128.7          67.45          61.49
     2.656              -58.09         0.1612          29.88          67.85         -5.836          7.725         -125.1          82.99         -128.3          67.94          60.49
     2.699              -58.12         0.1897          29.61          68.13         -5.893          7.884         -125.3          83.36         -128.0          68.33          59.68
     2.743              -58.14         0.2131           29.4          68.37          -5.94          8.014         -125.4          83.67         -127.7          68.65          59.02
     2.786              -58.16         0.2325          29.22          68.56         -5.979          8.121         -125.6          83.92         -127.5          68.92          58.48
